<svg width="803" height="731" viewBox="0 0 803 731" fill="none" xmlns="http://www.w3.org/2000/svg">
<path d="M337.674 691.751C245.956 666.358 164.738 646.109 107.565 594.748C50.0952 544.774 16.1253 462.848 4.48289 374.817C-7.15949 286.786 3.82186 191.264 52.7999 124.883C102.619 57.9562 190.435 20.1699 279.604 6.59574C368.227 -7.81987 456.52 3.06705 538.39 37.2302C619.964 72.78 694.275 132.151 744.09 214.562C793.063 297.519 816.996 402.674 794.034 499.986C772.457 597.595 704.53 688.201 618.491 717.668C532.998 747.976 429.392 717.144 337.674 691.751Z" fill="url(#paint0_linear_157_5)"/>
<defs>
<linearGradient id="paint0_linear_157_5" x1="490.774" y1="-176.761" x2="206.787" y2="897.376" gradientUnits="userSpaceOnUse">
<stop stop-color="#1E3D58"/>
<stop offset="1" stop-color="#E8EEF1"/>
</linearGradient>
</defs>
</svg>
